<svg width="50" height="49" viewBox="0 0 50 49" fill="none" xmlns="http://www.w3.org/2000/svg">
<path d="M25.0909 0.848633C21.9073 0.848633 18.755 1.47568 15.8137 2.69398C12.8725 3.91227 10.2 5.69796 7.94892 7.94907C3.40259 12.4954 0.84848 18.6616 0.84848 25.0911C0.84848 35.8062 7.80606 44.8971 17.4303 48.1214C18.6424 48.3153 19.0303 47.5638 19.0303 46.9092V42.8123C12.3151 44.2668 10.8848 39.5638 10.8848 39.5638C9.76969 36.7517 8.19394 36.0001 8.19394 36.0001C5.98787 34.4971 8.36363 34.5456 8.36363 34.5456C10.7879 34.7153 12.0727 37.0426 12.0727 37.0426C14.1818 40.7274 17.7455 39.6365 19.1273 39.0547C19.3454 37.4789 19.9758 36.4123 20.6545 35.8062C15.2727 35.2001 9.62424 33.1153 9.62424 23.8789C9.62424 21.188 10.5455 19.0304 12.1212 17.3092C11.8788 16.7032 11.0303 14.182 12.3636 10.9092C12.3636 10.9092 14.4 10.2547 19.0303 13.382C20.9454 12.8486 23.0303 12.582 25.0909 12.582C27.1515 12.582 29.2364 12.8486 31.1515 13.382C35.7818 10.2547 37.8182 10.9092 37.8182 10.9092C39.1515 14.182 38.303 16.7032 38.0606 17.3092C39.6364 19.0304 40.5576 21.188 40.5576 23.8789C40.5576 33.1395 34.8848 35.1759 29.4788 35.782C30.3515 36.5335 31.1515 38.0123 31.1515 40.2668V46.9092C31.1515 47.5638 31.5394 48.3395 32.7758 48.1214C42.4 44.8729 49.3333 35.8062 49.3333 25.0911C49.3333 21.9075 48.7063 18.7551 47.488 15.8139C46.2697 12.8727 44.484 10.2002 42.2329 7.94907C39.9818 5.69796 37.3093 3.91227 34.3681 2.69398C31.4269 1.47568 28.2745 0.848633 25.0909 0.848633Z" fill="#D2D2D2"/>
</svg>
