<svg width="59" height="59" viewBox="0 0 59 59" fill="none" xmlns="http://www.w3.org/2000/svg">
<path d="M29.0909 4.84863C25.9073 4.84863 22.755 5.47568 19.8137 6.69398C16.8725 7.91227 14.2 9.69796 11.9489 11.9491C7.40259 16.4954 4.84848 22.6616 4.84848 29.0911C4.84848 39.8062 11.8061 48.8971 21.4303 52.1214C22.6424 52.3153 23.0303 51.5638 23.0303 50.9092V46.8123C16.3151 48.2668 14.8848 43.5638 14.8848 43.5638C13.7697 40.7517 12.1939 40.0001 12.1939 40.0001C9.98787 38.4971 12.3636 38.5456 12.3636 38.5456C14.7879 38.7153 16.0727 41.0426 16.0727 41.0426C18.1818 44.7274 21.7455 43.6365 23.1273 43.0547C23.3454 41.4789 23.9758 40.4123 24.6545 39.8062C19.2727 39.2001 13.6242 37.1153 13.6242 27.8789C13.6242 25.188 14.5455 23.0304 16.1212 21.3092C15.8788 20.7032 15.0303 18.182 16.3636 14.9092C16.3636 14.9092 18.4 14.2547 23.0303 17.382C24.9454 16.8486 27.0303 16.582 29.0909 16.582C31.1515 16.582 33.2364 16.8486 35.1515 17.382C39.7818 14.2547 41.8182 14.9092 41.8182 14.9092C43.1515 18.182 42.303 20.7032 42.0606 21.3092C43.6364 23.0304 44.5576 25.188 44.5576 27.8789C44.5576 37.1395 38.8848 39.1759 33.4788 39.782C34.3515 40.5335 35.1515 42.0123 35.1515 44.2668V50.9092C35.1515 51.5638 35.5394 52.3395 36.7758 52.1214C46.4 48.8729 53.3333 39.8062 53.3333 29.0911C53.3333 25.9075 52.7063 22.7551 51.488 19.8139C50.2697 16.8727 48.484 14.2002 46.2329 11.9491C43.9818 9.69796 41.3093 7.91227 38.3681 6.69398C35.4269 5.47568 32.2745 4.84863 29.0909 4.84863Z" fill="#D2D2D2"/>
</svg>
