<svg width="59" height="59" viewBox="0 0 59 59" fill="none" xmlns="http://www.w3.org/2000/svg">
<path d="M29.0909 21.2119C27.0013 21.2119 24.9973 22.042 23.5198 23.5196C22.0422 24.9971 21.2121 27.0011 21.2121 29.0907C21.2121 31.1803 22.0422 33.1843 23.5198 34.6618C24.9973 36.1394 27.0013 36.9695 29.0909 36.9695C31.1805 36.9695 33.1845 36.1394 34.6621 34.6618C36.1396 33.1843 36.9697 31.1803 36.9697 29.0907C36.9697 27.0011 36.1396 24.9971 34.6621 23.5196C33.1845 22.042 31.1805 21.2119 29.0909 21.2119Z" fill="#D2D2D2"/>
<path fill-rule="evenodd" clip-rule="evenodd" d="M16.4121 7.47161C24.8389 6.53811 33.343 6.53811 41.7697 7.47161C46.3733 7.98555 50.0849 11.6098 50.6255 16.2304C51.6241 24.7751 51.6241 33.407 50.6255 41.9516C50.0849 46.5722 46.3733 50.1965 41.7721 50.7128C33.3446 51.6465 24.8397 51.6465 16.4121 50.7128C11.8085 50.1965 8.09698 46.5722 7.55637 41.954C6.55754 33.4086 6.55754 24.7759 7.55637 16.2304C8.09698 11.6098 11.8085 7.98555 16.4121 7.47161ZM41.2121 14.5456C40.5692 14.5456 39.9526 14.801 39.4979 15.2556C39.0433 15.7102 38.7879 16.3268 38.7879 16.9698C38.7879 17.6127 39.0433 18.2294 39.4979 18.684C39.9526 19.1386 40.5692 19.394 41.2121 19.394C41.8551 19.394 42.4717 19.1386 42.9263 18.684C43.381 18.2294 43.6364 17.6127 43.6364 16.9698C43.6364 16.3268 43.381 15.7102 42.9263 15.2556C42.4717 14.801 41.8551 14.5456 41.2121 14.5456ZM17.5758 29.091C17.5758 26.037 18.789 23.1081 20.9485 20.9486C23.108 18.7891 26.0369 17.5759 29.0909 17.5759C32.1449 17.5759 35.0739 18.7891 37.2334 20.9486C39.3929 23.1081 40.6061 26.037 40.6061 29.091C40.6061 32.145 39.3929 35.0739 37.2334 37.2335C35.0739 39.393 32.1449 40.6062 29.0909 40.6062C26.0369 40.6062 23.108 39.393 20.9485 37.2335C18.789 35.0739 17.5758 32.145 17.5758 29.091Z" fill="#D2D2D2"/>
</svg>
