<svg width="47" height="59" viewBox="0 0 47 59" fill="none" xmlns="http://www.w3.org/2000/svg">
<path d="M17.6121 12.9421C18.2408 12.9421 18.766 12.7313 19.1876 12.3096C19.6093 11.888 19.8201 11.3609 19.8201 10.7284C19.8201 10.0959 19.6093 9.56977 19.1876 9.15001C18.766 8.73027 18.2398 8.51943 17.6093 8.51752C16.9787 8.5156 16.4525 8.72643 16.0309 9.15001C15.6092 9.5736 15.3984 10.1007 15.3984 10.7313C15.3984 11.3618 15.6092 11.887 16.0309 12.3068C16.4525 12.7265 16.9796 12.9402 17.6121 12.9421ZM4.89313 58.0566C3.60513 58.0566 2.5088 57.6043 1.60413 56.6996C0.699465 55.795 0.248089 54.6996 0.250006 53.4135V5.19977C0.250006 3.87727 0.693714 2.77327 1.58113 1.88777C2.46855 1.00227 3.57351 0.558557 4.89601 0.556641H30.3283C31.6124 0.556641 32.7078 1.00897 33.6144 1.91364C34.519 2.81831 34.9714 3.91464 34.9714 5.20264V14.4429C35.6863 14.5196 36.3073 14.8166 36.8344 15.3341C37.3615 15.8497 37.625 16.4707 37.625 17.1971V22.283C37.625 23.0094 37.3615 23.6304 36.8344 24.146C36.3073 24.6616 35.6863 24.9587 34.9714 25.0373V32.564H32.0964V5.20264C32.0964 4.68514 31.9306 4.2606 31.599 3.92902C31.2674 3.59743 30.8438 3.43164 30.3283 3.43164H4.89601C4.37851 3.43164 3.95396 3.59743 3.62238 3.92902C3.2908 4.2606 3.12501 4.68514 3.12501 5.20264V53.4135C3.12501 53.9291 3.2908 54.3527 3.62238 54.6843C3.95396 55.0158 4.37851 55.1816 4.89601 55.1816H11.9714V58.0566H4.89313ZM27.1284 56.3L18.8283 47.9941L27.1313 39.6911L29.1093 41.741L22.8561 47.9941L29.1093 54.2473L27.1284 56.3ZM37.9441 56.3L35.9633 54.2473L42.2164 47.9941L35.9633 41.741L37.9441 39.6911L46.25 47.9941L37.9441 56.3Z" fill="#FDD319"/>
</svg>
