<svg width="73" height="66" viewBox="0 0 73 66" fill="none" xmlns="http://www.w3.org/2000/svg">
<path d="M64.1 1.80664H8.9C5.08924 1.80664 2 4.89588 2 8.70664V43.2066C2 47.0174 5.08924 50.1066 8.9 50.1066H64.1C67.9108 50.1066 71 47.0174 71 43.2066V8.70664C71 4.89588 67.9108 1.80664 64.1 1.80664Z" stroke="#FDD319" stroke-width="3" stroke-linecap="round" stroke-linejoin="round"/>
<path d="M22.7 63.9064H50.3M36.5 50.1064V63.9064" stroke="#FDD319" stroke-width="3" stroke-linecap="round" stroke-linejoin="round"/>
<path d="M14.88 33.0466C12.8933 33.0466 11.34 32.4933 10.22 31.3866C9.1 30.28 8.54 28.7 8.54 26.6466V18.8066H11.78V26.5266C11.78 27.86 12.0533 28.82 12.6 29.4066C13.1467 29.9933 13.9133 30.2866 14.9 30.2866C15.8867 30.2866 16.6533 29.9933 17.2 29.4066C17.7467 28.82 18.02 27.86 18.02 26.5266V18.8066H21.22V26.6466C21.22 28.7 20.66 30.28 19.54 31.3866C18.42 32.4933 16.8667 33.0466 14.88 33.0466ZM24.4217 32.8066V18.8066H27.6617V32.8066H24.4217ZM28.6642 34.8066L35.2642 15.9666H38.0442L31.4442 34.8066H28.6642ZM45.0363 33.0466C43.0496 33.0466 41.4963 32.4933 40.3763 31.3866C39.2563 30.28 38.6963 28.7 38.6963 26.6466V18.8066H41.9363V26.5266C41.9363 27.86 42.2096 28.82 42.7563 29.4066C43.3029 29.9933 44.0696 30.2866 45.0563 30.2866C46.0429 30.2866 46.8096 29.9933 47.3563 29.4066C47.9029 28.82 48.1762 27.86 48.1762 26.5266V18.8066H51.3763V26.6466C51.3763 28.7 50.8163 30.28 49.6963 31.3866C48.5763 32.4933 47.0229 33.0466 45.0363 33.0466ZM52.7827 32.8066L58.8027 24.5066V26.8666L53.0427 18.8066H56.7227L60.7027 24.4266L59.1627 24.4466L63.0827 18.8066H66.6027L60.8827 26.7266V24.4066L66.9427 32.8066H63.2027L59.0827 26.8666H60.5627L56.5027 32.8066H52.7827Z" fill="#FDD319"/>
</svg>
