<svg width="25" height="24" viewBox="0 0 25 24" fill="none" xmlns="http://www.w3.org/2000/svg">
<path d="M20.0563 22.7687L14.3406 17.0531L17.0531 14.3406L22.7688 20.0562C23.1347 20.4222 23.3177 20.8743 23.3177 21.4124C23.3177 21.9506 23.1347 22.4027 22.7688 22.7687C22.4028 23.1347 21.9507 23.3177 21.4125 23.3177C20.8743 23.3177 20.4222 23.1347 20.0563 22.7687ZM2.23125 22.7687C1.86528 22.4027 1.68229 21.9506 1.68229 21.4124C1.68229 20.8743 1.86528 20.4222 2.23125 20.0562L9.7875 12.4999L7.59167 10.3041C7.35486 10.5409 7.05347 10.6593 6.6875 10.6593C6.32153 10.6593 6.02014 10.5409 5.78334 10.3041L5.04063 9.5614V12.4677C5.04063 12.769 4.91146 12.9736 4.65313 13.0812C4.39479 13.1888 4.15799 13.135 3.94271 12.9197L0.422919 9.39994C0.207642 9.18467 0.153822 8.94786 0.261461 8.68953C0.3691 8.43119 0.573614 8.30203 0.875003 8.30203H3.78125L3.07084 7.59161C2.8125 7.33328 2.68334 7.03189 2.68334 6.68744C2.68334 6.343 2.8125 6.04161 3.07084 5.78328L6.75209 2.10203C7.18264 1.67147 7.64549 1.35932 8.14063 1.16557C8.63577 0.971819 9.14167 0.874944 9.65834 0.874944C10.0889 0.874944 10.4928 0.939528 10.8699 1.06869C11.2471 1.19786 11.6182 1.39161 11.9833 1.64994C12.1556 1.75758 12.2473 1.90828 12.2585 2.10203C12.2697 2.29578 12.1995 2.468 12.0479 2.61869L9.59375 5.07286L10.3042 5.78328C10.541 6.02008 10.6594 6.32147 10.6594 6.68744C10.6594 7.05342 10.541 7.3548 10.3042 7.59161L12.5 9.78744L15.4063 6.88119C15.3201 6.64439 15.2504 6.39682 15.197 6.13849C15.1436 5.88015 15.1165 5.62182 15.1156 5.36349C15.1156 4.09335 15.5518 3.02212 16.4241 2.14982C17.2964 1.27751 18.3672 0.841792 19.6365 0.842653C19.8087 0.842653 19.9701 0.84825 20.1208 0.859444C20.2715 0.870639 20.4222 0.897333 20.5729 0.939528C20.7667 1.00411 20.8907 1.13887 20.9449 1.34382C20.9992 1.54876 20.9505 1.72615 20.799 1.87599L18.7 3.97494C18.5708 4.10411 18.5063 4.25481 18.5063 4.42703C18.5063 4.59925 18.5708 4.74994 18.7 4.87911L20.1208 6.29994C20.25 6.42911 20.4007 6.49369 20.5729 6.49369C20.7451 6.49369 20.8958 6.42911 21.025 6.29994L23.124 4.20099C23.2747 4.05029 23.4525 3.99647 23.6574 4.03953C23.8624 4.08258 23.9967 4.21175 24.0604 4.42703C24.1035 4.57772 24.1306 4.72842 24.1418 4.87911C24.153 5.02981 24.1582 5.19126 24.1573 5.36349C24.1573 6.63362 23.7216 7.70442 22.8501 8.57586C21.9787 9.4473 20.9075 9.88346 19.6365 9.88432C19.3781 9.88432 19.1198 9.86279 18.8615 9.81974C18.6031 9.77668 18.3556 9.70133 18.1188 9.59369L4.94375 22.7687C4.57778 23.1347 4.1257 23.3177 3.5875 23.3177C3.04931 23.3177 2.59722 23.1347 2.23125 22.7687Z" fill="#FDD319"/>
</svg>
