<svg width="73" height="66" viewBox="0 0 73 66" fill="none" xmlns="http://www.w3.org/2000/svg">
<path d="M64.1 1.80664H8.9C5.08924 1.80664 2 4.89588 2 8.70664V43.2066C2 47.0174 5.08924 50.1066 8.9 50.1066H64.1C67.9108 50.1066 71 47.0174 71 43.2066V8.70664C71 4.89588 67.9108 1.80664 64.1 1.80664Z" stroke="#FDD319" stroke-width="3" stroke-linecap="round" stroke-linejoin="round"/>
<path d="M22.7 63.9064H50.3M36.5 50.1064V63.9064" stroke="#FDD319" stroke-width="3" stroke-linecap="round" stroke-linejoin="round"/>
<path d="M31.76 30.7266L22.24 27.1066V24.5066L31.76 20.8866V23.3866L23.18 26.5066V25.1066L31.76 28.2266V30.7266ZM32.3127 34.8066L38.9127 15.9666H41.6927L35.0927 34.8066H32.3127ZM42.0447 30.7266V28.2266L50.6247 25.1066V26.5066L42.0447 23.3866V20.8866L51.5647 24.5066V27.1066L42.0447 30.7266Z" fill="#FDD319"/>
</svg>
